<?xml version="1.0" encoding="utf-8"?>
<!-- Generator: Adobe Illustrator 19.0.1, SVG Export Plug-In . SVG Version: 6.00 Build 0)  -->
<!DOCTYPE svg PUBLIC "-//W3C//DTD SVG 1.1//EN" "http://www.w3.org/Graphics/SVG/1.1/DTD/svg11.dtd">
<svg version="1.1" id="Layer_1" xmlns="http://www.w3.org/2000/svg" xmlns:xlink="http://www.w3.org/1999/xlink" x="0px" y="0px"
	 width="22px" height="16px" viewBox="0 0 22 16" style="enable-background:new 0 0 22 16;" xml:space="preserve">
<g>
	<path d="M21.4,15.2h-2.1c0.1-0.1,0.1-0.2,0.1-0.3L17.1,0.3c0-0.1-0.1-0.2-0.1-0.2C16.9,0,16.8,0,16.7,0l-3.9,0.6
		c-0.1,0-0.2,0.1-0.2,0.1c-0.1,0.1-0.1,0.2-0.1,0.3l2.2,14.2h-2.4V0.8c0-0.2-0.2-0.3-0.3-0.3H8c-0.2,0-0.3,0.2-0.3,0.3v14.4H7V0.8
		c0-0.2-0.2-0.3-0.3-0.3h-4c-0.2,0-0.3,0.2-0.3,0.3v14.4H0.6c-0.2,0-0.3,0.2-0.3,0.3c0,0.2,0.2,0.3,0.3,0.3h1.9
		C2.5,16,2.6,16,2.7,16h4c0.1,0,0.2,0,0.2-0.1h0.9C7.8,16,7.9,16,8,16h4c0.1,0,0.2,0,0.2-0.1h2.7c0.1,0,0.1,0.1,0.2,0.1
		c0,0,0,0,0.1,0l0.4-0.1h5.9c0.2,0,0.3-0.2,0.3-0.3C21.8,15.4,21.6,15.2,21.4,15.2z M13.2,1.2l3.2-0.5l2.2,14l-3.2,0.5h-0.1
		L13.2,1.2z M11.6,12.4H8.3V4h3.3V12.4z M11.6,3.3H8.3V2.9h3.3V3.3z M8.3,13.1h3.3v0.5H8.3V13.1z M11.6,1.2v1H8.3v-1H11.6z
		 M8.3,14.3h3.3v0.9H8.3V14.3z M3,2.9h3.3v10.8H3V2.9z M6.3,1.2v1H3v-1H6.3z M3,14.3h3.3v0.9H3V14.3z"/>
	<path d="M15.9,9.1c0.1,0,0.1,0,0.2,0c0.6-0.1,1.1-0.7,1-1.3c0-0.3-0.2-0.6-0.5-0.8c-0.3-0.2-0.6-0.3-0.9-0.2
		c-0.6,0.1-1.1,0.7-1,1.3C14.9,8.7,15.4,9.1,15.9,9.1z"/>
</g>
</svg>
