<?xml version="1.0" encoding="utf-8"?>
<!-- Generator: Adobe Illustrator 19.0.1, SVG Export Plug-In . SVG Version: 6.00 Build 0)  -->
<!DOCTYPE svg PUBLIC "-//W3C//DTD SVG 1.1//EN" "http://www.w3.org/Graphics/SVG/1.1/DTD/svg11.dtd">
<svg version="1.1" id="Layer_1" xmlns="http://www.w3.org/2000/svg" xmlns:xlink="http://www.w3.org/1999/xlink" x="0px" y="0px"
	 width="33px" height="16px" viewBox="0 0 33 16" style="enable-background:new 0 0 33 16;" xml:space="preserve">
<path d="M32.4,15.1H28v-3.7c0-0.2-0.2-0.4-0.4-0.4h-3.7V7.3c0-0.2-0.2-0.4-0.4-0.4h-6.4c1.7-0.2,3-1.7,3-3.4c0-1.9-1.6-3.5-3.5-3.5
	c-1.8,0-3.3,1.4-3.5,3.2L13,3.1c-0.6-0.3-1.4-0.3-2,0l-0.1,0.1C10.8,1.4,9.3,0,7.5,0C5.5,0,4,1.6,4,3.5c0,1.8,1.3,3.2,3,3.4H0.6
	c-0.2,0-0.4,0.2-0.4,0.4v4.1c0,0.2,0.2,0.4,0.4,0.4h3.7v3.3H2c-0.2,0-0.4,0.2-0.4,0.4C1.5,15.8,1.7,16,2,16h30.4
	c0.2,0,0.4-0.2,0.4-0.4C32.8,15.3,32.6,15.1,32.4,15.1z M27.2,15.1h-1.8v-3.3h1.8V15.1z M3.6,11V7.7h15.1V11h-14H3.6z M19.5,11V7.7
	h1V11H19.5z M23.5,11.8h1.1v3.3H7.7v-3.3H23.5z M23.1,11h-1.8V7.7h1.8V11z M16.6,0.8c1.5,0,2.7,1.2,2.7,2.7c0,1.5-1.2,2.7-2.7,2.7
	C15.2,6.2,14,5,14,3.5C14,2,15.2,0.8,16.6,0.8z M4.8,3.5C4.8,2,6,0.8,7.5,0.8c1.5,0,2.7,1.2,2.7,2.7c0,1.5-1.2,2.7-2.7,2.7
	C6,6.2,4.8,5,4.8,3.5z M10.9,4.1l0.5-0.2c0.4-0.2,0.9-0.2,1.4,0l0.5,0.2c0.3,1.5,1.4,2.6,2.9,2.8H7.9C9.4,6.7,10.6,5.6,10.9,4.1z
	 M1,7.7h1.8V11H1V7.7z M5.1,11.8h1.8v3.3H5.1V11.8z"/>
</svg>
