<?xml version="1.0" encoding="utf-8"?>
<!-- Generator: Adobe Illustrator 19.0.1, SVG Export Plug-In . SVG Version: 6.00 Build 0)  -->
<!DOCTYPE svg PUBLIC "-//W3C//DTD SVG 1.1//EN" "http://www.w3.org/Graphics/SVG/1.1/DTD/svg11.dtd">
<svg version="1.1" id="Layer_1" xmlns="http://www.w3.org/2000/svg" xmlns:xlink="http://www.w3.org/1999/xlink" x="0px" y="0px"
	 width="16px" height="16px" viewBox="0 0 16 16" style="enable-background:new 0 0 16 16;" xml:space="preserve">
<polygon points="15.7,5.1 14.5,5.5 12.7,4.8 15.7,3.8 15.7,2.8 11.3,4.2 9.5,3.5 15.7,1.6 15.7,0.6 8.1,3 0.3,0 0.4,6.4 7.5,4.2 
	7.5,5.4 0.4,7.7 0.4,8.7 7.5,6.4 7.5,7.7 0.4,9.9 0.4,10.9 7.5,8.7 7.5,9.9 0.4,12.2 0.4,13.2 7.5,10.9 7.5,12.2 0.4,14.5 0.4,15.5 
	8,13 15.7,16 "/>
</svg>
